<svg id="Layer_1" data-name="Layer 1" xmlns="http://www.w3.org/2000/svg" viewBox="0 0 267.68 261.89"><defs><style>.cls-1{fill:#f3cc16;}</style></defs><path class="cls-1" d="M247.56,38.72c12.27,3.07,20.12,13,20.12,26.27,0,17.4-13.49,29.87-32.27,29.87-18.4,0-31-12-31.56-29.73h22c.26,6,4,10.05,9.64,10.05,5.85,0,9.95-4.31,9.95-10.56s-4.25-10.14-10.91-10.14H220.79V49.71l13.94-22.92H206V7.28h58.74v3.93L247.55,38.72Z"/><path class="cls-1" d="M0,216.83V153.27l102.37-146h82.1V150.87H209.2v66H184.47v37.78H107.52V216.83ZM113.71,94.19l-37.1,56.68h37.1Z"/></svg>