<svg id="Layer_1" data-name="Layer 1" xmlns="http://www.w3.org/2000/svg" viewBox="0 0 267.68 261.89"><defs><style>.cls-1{fill:none;stroke:#f3cc16;stroke-miterlimit:10;stroke-width:5px;}</style></defs><path class="cls-1" d="M237.11,47.19C248.25,50,255.39,59,255.39,71.05c0,15.8-12.26,27.13-29.31,27.13-16.71,0-28.19-10.91-28.66-27h20c.24,5.48,3.64,9.12,8.76,9.12,5.31,0,9-3.91,9-9.59s-3.87-9.21-9.92-9.21H212.8V57.17l12.66-20.81H199.37V18.64h53.34v3.57l-15.6,25Z"/><path class="cls-1" d="M12.29,208.94V151.22l93-132.58h74.56V149h22.46v59.9H179.82v34.31H109.94V208.94ZM115.55,97.57,81.86,149h33.69Z"/></svg>