<svg id="Layer_1" data-name="Layer 1" xmlns="http://www.w3.org/2000/svg" viewBox="0 0 1074.1 261.89"><defs><style>.cls-1{fill:#171f3e;}.cls-2{fill:none;stroke:#171f3e;stroke-miterlimit:10;stroke-width:5px;}</style></defs><path class="cls-1" d="M0,218.47v-62.9L101.32,11.08h81.26V153.19h24.48v65.28H182.58v37.4H106.42v-37.4ZM112.54,97.09l-36.72,56.1h36.72Z"/><path class="cls-2" d="M332.41,261.89c-58.88,0-101.38-41.26-101.38-98.07s42.3-97.28,101.57-97.28c51.6,0,90.3,32.53,97.22,81.36H368.21c-5.31-15-19.32-24.69-35.8-24.69-22.23,0-38,16.88-38,40.81s16,41.2,38,41.2c17,0,30.72-10.39,35.94-26.79h62.14c-7.15,49.86-46.38,83.46-98.08,83.46Z"/><path class="cls-2" d="M455.43,177.05V72.27h63.24v102c0,19.38,10.41,30.78,27.31,30.78s27.12-11.59,27.12-30.78v-102h63.24V177.05c0,51.38-36.12,84.84-90.36,84.84S455.43,228.43,455.43,177.05Z"/><path class="cls-2" d="M781.85,66.54c56.53,0,96.47,40.61,96.47,97.67s-39.94,97.68-96.47,97.68c-21.43,0-40.47-7.19-55.39-19.65l-6,13.63H673.7V6h62.52V79.2a86.06,86.06,0,0,1,45.63-12.66Zm32.64,97.67c0-24-17.41-41.87-41.1-41.87s-41.1,17.89-41.1,41.87c0,23.78,17.41,41.68,41.1,41.68S814.49,188,814.49,164.21Z"/><path class="cls-1" d="M958.66,112.16,913.28,39.51V29.12h155.15V80.66H992.54l36.82,60.53v12.6H993.14c-17.6,0-28.83,10.25-28.83,26.78s10.84,27.9,26.3,27.9c14.86,0,24.78-10.59,25.46-26.53h58c-1.36,46.8-34.76,78.52-83.35,78.52-49.61,0-85.25-32.93-85.25-78.91,0-35,20.74-61.26,53.16-69.39Z"/></svg>